<?xml version="1.0"?>
    
<!--********* Copyright (c) 2024 Pareto Softare, LLC DBA Simplemaps.com ***************************************
************* Free for Commercial Use, full terms at  https://simplemaps.com/resources/svg-license ************
************* Attribution is appreciated! https://simplemaps.com *******************************************-->

<svg baseprofile="tiny" height="918" stroke="#ffffff" stroke-linecap="round" stroke-linejoin="round" stroke-width=".5" version="1.2" viewbox="0 0 1000 918" width="1000" xmlns="http://www.w3.org/2000/svg" fill='#374151'>
 <g id="features">
  <path d="M50.1 806.5l3.7-5.5 6.8-8.1 1-4.2-0.5-2 1.6-4.9 2.4-4 0.9-0.3 2-3.7-3.3-5.3-0.7-2-1.8-15.6 0.4-2.1-5.1-2.2 0-2.4 1.5-2.4 1.5-3.2-0.5-4.7-3-1.9-0.6-7.7-3.8-2.7-1-1.2 4.6-6.5-5.2-3.6 3-1.4 1-1.2 2.3-1.6 0.3-2.2 0.4-0.9 0.2-2.7 0.8-1-0.2-0.8 3.3-2 3.4-2.1 2.5-1.5 4.2-3.6 2.2-5.2-1.8-3.3 1.5-2.2 3.2-1 3.2 0 2.6-1.2 2.9-1.8 2.1-2.5 0.4-3.1-1.2-1.8-2.3-1.7-2.5-1.3-2-0.5-3.1-1.8-3.1-0.6-1.8-1.1 0.6-3.5 0.5-0.6 1.8-0.7 0.6-0.6 0.4-1.6-0.4-3 0.2-1.3 1-1.5 2.5-2.3 0.8-1.9 1.9-2.8 4.5-3.9 1.9-3.5 1.3-1.8 2.2-0.9 2.6-0.6 2.3-1.1 4.9-3 0.9 0.5 1.8 2.2 1.1 0.7 2.8 0 2.2-1.4 1.9-1.5 2.1-0.8 2.4 0.5 7 3.4 5.2 1.3 2.6-0.5 1.6-2.1-0.2-3.4-2.4-1.5-5.3-0.9-4.1-3.1-0.8-1-0.9-1.6-0.3-0.6 3-6 1.8-2.9 2.2-2.7 5.4-4.8 4.6-5.8 2.9-1.4 1.5 0.1 3 1.1 1.8-0.1 2.3-1.1 0.7-1.5 0.3-2 0.8-2.3 2.7-3.4 6.1-5.2 3.1-5.4 3.9-4.2-0.1-0.2-0.7-1.6-3.3-3.3-0.9-2.4-0.7-3.1 1.1-2.1 1.3-1.8 0.3-2.2-0.7-1.3-0.9-0.2-1 0.1-1-0.4-1.5-1.6-2.9-4.2-0.7-1.3-0.4-1.3 0.2-1.4 0.4-0.8 0.5-0.8 0.3-1.2 0.5-2.7 0.1-1.8-0.7-1.5-2.2-1.5-1 0.3-1-0.6-1.9-2.5-2.4-1-1.8-1.5-1.4-2.2-0.8-2.8-1.9-0.6-3.8-0.3-3.9 0.1-2.7 0.8-0.4 0.2-0.4 0-0.3 0-0.4-0.2-0.4-0.7-1.3-2.6 2.2-2.4 3.8-2 2.6-2.1 0.7-2.7-0.2-2.4 0.3-2 2-1.3 2 0.6 1.5 1.2 1-0.8 0.5-5.2-3.3 1.1-3.4 0.1-3.2-1.2-2.8-2.4-3.2-5.9-2-1.4-2.9 2-0.4 1.3-0.1 3.3-0.5 1.5-1.3 1.3-1.3 0.7-8.3 0.4-0.8-0.3-1.6-1.2-0.7-0.3-0.8 0.2-1.7 1-0.6 0.2-5.9-0.4-3.4-0.3-3.7 0.6-3.1-0.1-2.9-0.9-2.4-1.9-1-0.5-1.2-0.4-1.8 0.1-0.5-3.1-2.5-5.1-0.9-4.5-1.4-2.4-0.3-1.5 0-6.8-0.4-1-2.4-4.2-0.5-1.6-0.7-3.5-4.4-11.9 0.8-0.5 0.1-0.8 0.8-1 0.2-1.2-0.2-1.1-0.8-1.1 0-1.2 0.7-0.7 0-0.1-0.3-0.2-0.4-1.2 1.1-2.4 0.8-1.2 1-1.1 0.8-2.5-0.5-2.5-0.8-2.2-0.5-1.9 0-8 0.9-2 6.4-9.9 2.9-2.9-1.2-4.5-5.2-10.6 1.8-5.6-0.6-2.8-1-10.9 0.3-2.4-1.4-1.4-6.6-8.9-2.8-1.4-1.4-1-0.5-1.7-1.1-0.9-2.2 0.3-2.1 0.8-0.7 0.4-1.5-0.7 0.2-1.9 0.7-2.3 0.1-2-0.8-0.9-4.8-2.6 0.3-0.8 0.2-1.7 0.4-0.9-0.9 0-1.8 1 0-1 2.7-1 2.7-1.7 2.1-2.5 0.8-3-0.3-1.8-1.2-2.3-0.3-2.1 0.7-1.2 3.2-1.1 5.3-10.2 0.2-0.9 0-3.9-0.6-3.3-1.4-3.9-1.9-3.7-1.8-2.4 6.6 0.4 3.3-0.8 1.4-2.5 0.6-3.3 3.5-5.3 1.3 0.4 2.7-0.5 2.8-1 2.6-0.4 1.8 1.9 0 2.2-0.4 2.2 0.3 2 1.6 1.4 2.1 0.5 4.3 0.1 4 1.9 8 5.8 2.3-0.4 0.3-0.1 1.5-4.9 0.8-11.9 3-4.9 4.4-1.6 3.3 0.9 2.2-0.5 1.1-6 0.1 0 2.7-1.1 5.4 2.1 2.9-1-0.4-4.8 0.4-24.4 0.3-2.5 0.8-1.3 1.1-1.1 0.2-1.5-2-2.3 1.6-1.6 1.7 2.1 1.7 1.2 1.9 0.6 3.8 0.5 0.8 0.3 0.7 0 1.2-0.5 0.6-1 0.2-1.2 0.5-1.1 1.6-0.5 2.5-0.4 10.3 1.6 2.6 0 9.7-1.8 0.8-1.4-0.1-3.9-0.5-2.4-1-2.7-1.3-2.6 0-0.1-1.6-1.8-2.2-0.9-4.5-0.5-1.4-1.3 0.6-0.1 0.8-1.5 0.8-2.5 0.1-1.5-0.2-1.3-0.4-1.2-0.6-1.1-0.7-0.5-2.2-1-0.9-0.8-0.7-1.3-2.6-9.2-0.4-2.8 0.6-2.6 4.1-6.5 0.6-7.4-0.1-7.5 1.9-7.2 1.6-4 0.5-3.4 0.1-3.3 0.6-3.7 1.7-3.4 2.2-3 1.5-3.3-0.4-4.2 1.2-0.1 1.3 0.2 0.2 0.1 25.1 8.7 8.6 0.6 2.7 0.6 2.7 1.1 2.6 1.5 2.1 2 4.1 3.8 1.1 2.2 0.1 3.6-1.2 5.4 0.6 2 2.5 2.3 2.7 1.5 1.3-0.4 1.1-1.6 2.1-2.1 2.5-1.2 2.3 0.2 2.2 0.7 2.6 0.3 8.7-2.2 3-0.3 22.2 4.1 5.7 0.1 20.1-13 8.3-3.7 22.7-4.9 21.9-10.1 3.8-1 2.5-1.6 13.2-8.4 9.2-3.6 4.6-0.5 9 1.1 26 7.9 6.7 3.7 14.5 15.3 3.9 4.2 8.4 4.4 9.6 1.2 22.2-1 3-0.9 7.1-0.5 21 7.1 7.4-0.3 27.6-5.3 44.2-8.5 29.3-11.1 13.6-8.2 4.9-1.6 5.1-1 5.1-2.4 9.8-6.6 18.1-12.1 2.7-1.8 2.9-1.1 3-0.6 3.1-0.2 6.3-1.8 18.3-10.2 6.7-2.6 25.6-3.8 32.6 6.6 6.1 2.5 3 0.8 38-1.8 57-13.5 15.4-3.6 5.9-3.7 10.3-9.7 6.9-9.1 2-1.2 2.5-2 1.5 1.9 0.2 2-0.2 1.7 0.1 0.7 1.9 0.4 4.1 2 0.8-0.4 0.9-0.9 0.9-0.8 0.8 0.3 0.6 0.9 0.7 1.7 0.6 0.9 4.6 3.8 1 0.5 0.9 2.1-2.5 9.6 1.6 2.2 1.1 1 0.2 2.5 0.1 4.8 0.9 2 1 1.8 0.8 1.9 0 2.5-4.2 3.3-8.8 8.3 0 0.1-14.1 15.1-27.3 29.3-18.4 19.7-3.6 3.1-3.8 1.8-42.4 9.1-8.8 1.4-4.1 1.9-2.7 3.8-12.1 23.7-1.1 4.5-4.4 42.5 0 2.8 0.6 2.9 3.5 8.3 10.5 23 1.5 5.4 0.7 5.6 0.5 23.1-0.7 5.3-2.2 5-4.6 7-6.4 9.7 0 0.1-1.3 5-1.2 16.4-5.7 20.6-1.3 10.2 0.1 3.9 0.7 27.5 1.2 29.1-0.3 4.4-1.2 4.1-23.4 45.5-5 10.9-3.1 4.4-4 2.6-33.5 9.1-20 12.1-15.2 9.2-15.1 9.1-15.1 9.2-5.3 3.2-9.8 5.9-15.1 9.2-15.1 9.1-15.1 9.1-15.1 9.1-15.1 9.1-15.1 9.1-15.1 9.1-15.1 9.1-15.2 9.1-15.1 9.1-15.1 9-15.1 9.1-33.4 20.8-29.3 18.5-11.6 7.3-23.7 15-17.4 11.2-23.5 15.1-23.4 15.1-12.5 8.1-10.9 6.9-23.4 15.1-15.1 9.7-20.9 13.7-22 15-1.8 0.7-1.9-0.1-8.7-2.3-3-0.1-2.3 1.4-5-3.8-18.7-2.3-4.9-0.6-2.3-1.4-7.7-0.7-2.7-0.9-2-1.1-12-11.4-8.8-6.1-4.4-4.5-1.5-0.8-0.7 0.2-1.6 1.4-0.7 0.3-0.8-0.1-1.4-0.6-0.9-0.1-5 0.7-2 0-1.6-0.1-0.5-0.1 0-0.7-0.8-1.9-6.1-9.4-1.3-2.7-0.1-3 0.4-2.8-0.7-1.9-3.2-0.2-1.9 0.4-1.5-0.5-1.2-1.2-1.2-1.5 0.5 0.1 0.4-0.7 0.2-1.1-0.2-1-0.5-0.3-1.8 0-0.6-0.2-2.4-2.4-1.3-0.8-14.7-3.4-1.2-1.6 0-0.1-0.6-0.4-0.7-0.1-0.8 0.1-0.9 0.5z" id="SY" name="Syria">
  </path>
 </g>
 <g id="points">
  <circle class="32.56363490775058|36.0560885940346" cx="90.9" cy="835.8" id="0">
  </circle>
  <circle class="34.5683807574041|39.38298170504051" cx="545.5" cy="507" id="1">
  </circle>
  <circle class="37.074313069470996|42.044496193845234" cx="909.1" cy="84.7" id="2">
  </circle>
 </g>
 <g id="label_points">
  <circle class="Syria" cx="394.5" cy="434.1" id="SY">
  </circle>
 </g>
</svg>